<?xml version="1.0" encoding="UTF-8"?>
<svg xmlns="http://www.w3.org/2000/svg" version="1.1" viewBox="0 0 512 512">
  <defs>
    <style>
      .cls-1 {
        display: none;
        mix-blend-mode: difference;
      }

      .cls-1, .cls-2, .cls-3, .cls-4 {
        stroke-width: 0px;
      }

      .cls-1, .cls-3 {
        fill: #fff;
      }

      .cls-2 {
        fill: #000;
      }

      .cls-5 {
        isolation: isolate;
      }

      .cls-4 {
        fill: #fe5000;
      }
    </style>
  </defs>
  <g class="cls-5">
    <g id="b">
      <rect class="cls-2" width="512" height="512"/>
      <g>
        <path class="cls-4" d="M285.2,397.1h48.1c8.4,0,15.3-6.8,15.3-15.3v-50c0-8.5-10.4-12.7-16.3-6.6l-53.9,55.8c-5.8,6-1.5,16,6.8,16Z"/>
        <path class="cls-3" d="M320.2,221.6v46.8l-94.1,97.5c-31.5-9-53.2-37.6-53.2-70.7s33-73.6,73.6-73.6h73.6M333.3,193.2h-86.7c-56.3,0-101.9,45.6-101.9,101.9h0c0,48.4,33.8,88.9,79,99.3,1.5.3,3.1.5,4.6.5,5.8,0,11.4-2.4,15.6-6.7l98.6-102.2c3.9-4.1,6.1-9.5,6.1-15.1v-62.5c0-8.4-6.8-15.3-15.3-15.3h0Z"/>
        <path class="cls-3" d="M259.4,170.3v-63.7c0-8.4,6.8-15.3,15.3-15.3h63.7c8.4,0,12.6,10.2,6.7,16.1l-69.5,69.5c-6,6-16.1,1.7-16.1-6.7Z"/>
      </g>
      <circle class="cls-1" cx="256" cy="256" r="256"/>
      <rect class="cls-1" width="512" height="512"/>
    </g>
    <g id="Legends">
      <path class="cls-4" d="M699.6-1.5V1.5c0,4.3,3.4,7.7,7.7,7.7h15.2c4.3,0,7.7-3.4,7.7-7.7v-21.3c0-4.3-3.4-7.7-7.7-7.7h-15.2c-4.3,0-7.7-3.4-7.7-7.7v-10.6h30.5v10.6c0,4.3,3.4,7.7,7.7,7.7h76.2c4.3,0,7.7,3.4,7.7,7.7V19.8c0,4.3,3.4,7.7,7.7,7.7h15.2c4.3,0,7.7,3.4,7.7,7.7v10.6h-30.5v-10.6c0-4.3-3.4-7.7-7.7-7.7h-15.2c-4.3,0-7.7,3.4-7.7,7.7v10.6h-61.1v-10.6c0-4.3-3.4-7.7-7.7-7.7h-15.2c-4.3,0-7.7,3.4-7.7,7.7v10.6h-30.5v-10.6c0-4.3,3.4-7.7,7.7-7.7h15.2c4.3,0,7.7-3.4,7.7-7.7v-2.9c0-4.3-3.4-7.7-7.7-7.7h-53.4V-9.2h53.4c4.3,0,7.7,3.4,7.7,7.7ZM730.1,16.9v2.9c0,4.3,3.4,7.7,7.7,7.7h45.7c4.3,0,7.7-3.4,7.7-7.7V-1.5c0-4.3-3.4-7.7-7.7-7.7h-15.2c-4.3,0-7.7,3.4-7.7,7.7V1.5c0,4.3-3.4,7.7-7.7,7.7h-15.2c-4.3,0-7.7,3.4-7.7,7.7ZM669-45.8h-30.5v18.3h29.4c.6,0,1.1-.5,1.1-1.1v-17.2ZM882.8-45.8h-30.5v17.2c0,.6.5,1.1,1.1,1.1h28.3c.6,0,1.1-.5,1.1-1.1v-17.2ZM913.4-9.2h-60c-.6,0-1.1.5-1.1,1.1V8c0,.6.5,1.1,1.1,1.1h60V-9.2ZM913.4,27.5h-29.4c-.6,0-1.1.5-1.1,1.1v17.2h30.5v-18.3Z"/>
    </g>
  </g>
</svg>